<?xml version="1.0" encoding="utf-8"?>
<!-- Generator: Adobe Illustrator 22.1.0, SVG Export Plug-In . SVG Version: 6.00 Build 0)  -->
<svg version="1.1" id="Layer_1" xmlns="http://www.w3.org/2000/svg" xmlns:xlink="http://www.w3.org/1999/xlink" x="0px" y="0px"
	 viewBox="0 0 720 720" style="enable-background:new 0 0 720 720;" xml:space="preserve">
<style type="text/css">
	.st0{opacity:0.41;}
	.st1{clip-path:url(#SVGID_2_);fill:#39B54A;}
	.st2{clip-path:url(#SVGID_2_);fill:#B2D235;}
	.st3{clip-path:url(#SVGID_2_);fill:#86328C;}
	.st4{clip-path:url(#SVGID_2_);fill:#00AEEF;}
	.st5{fill:none;stroke:#000000;stroke-width:5;stroke-linecap:round;stroke-linejoin:round;stroke-miterlimit:10;}
	.st6{fill:#FEA94D;}
	.st7{fill:#FFFFFF;stroke:#000000;stroke-width:3;stroke-miterlimit:10;}
	.st8{fill:#FFFFFF;stroke:#000000;stroke-width:2;stroke-miterlimit:10;}
</style>
<g class="st0">
	<defs>
		<rect id="SVGID_1_" x="165.3" y="68.9" class="st0" width="404" height="568"/>
	</defs>
	<clipPath id="SVGID_2_">
		<use xlink:href="#SVGID_1_"  style="overflow:visible;"/>
	</clipPath>
	<circle class="st1" cx="361.8" cy="362.4" r="359"/>
	<circle class="st2" cx="376.3" cy="392.9" r="284.5"/>
	<circle class="st3" cx="399.8" cy="403.4" r="229"/>
	<circle class="st4" cx="415.8" cy="416.4" r="196"/>
</g>
<rect x="165.3" y="67.9" class="st5" width="404" height="568"/>
<g>
	<g>
		<path class="st6" d="M413.5,548c-0.5-0.4-0.6-0.9-0.7-1.4c-0.2-1.7,0-3.3,0.3-5c0.6-4,1.8-7.8,2.9-11.6c0.7-2.8,1.5-5.5,2.3-8.3
			c0.8-2.6,1.7-5.2,3-7.6c0.3-0.6,0.7-1.1,1.1-1.6c0.4-0.4,0.9-0.6,1.5-0.4c2.6,0.8,5.3,1.5,8,2.2c0.5,0.1,0.7,0.1,0.8-0.4
			c5.6-20.6,11.2-41.1,16.9-61.7c0.1-0.5,0-0.6-0.4-0.7c-2.7-0.7-5.3-1.5-8-2.2c-0.7-0.2-1-0.6-1.2-1.2c-0.3-1.2-0.2-2.5-0.1-3.7
			c0.3-2.5,0.8-4.9,1.4-7.2c1.2-4.5,2.4-9,3.7-13.5c0.8-2.9,1.8-5.8,3.3-8.5c0.3-0.6,0.7-1.2,1.2-1.6c0.4-0.4,0.9-0.6,1.6-0.4
			c1.8,0.5,3.5,1,5.3,1.5c8.8,2.4,17.5,4.8,26.3,7.1c3.4,0.9,6.8,1.9,10.2,2.8c0.6,0.2,1,0.5,1.2,1.2c0.3,1.3,0.2,2.6,0.1,3.8
			c-0.1,0.8-0.1,1.5-0.1,2.3c-11.1,40.8-22.3,81.5-33.4,122.3c-0.5,1.1-1,2.1-1.5,3.2c-0.4,0.7-0.8,1.4-1.3,2
			c-0.5,0.5-1,0.7-1.8,0.5c-2.9-0.8-5.7-1.6-8.6-2.4c-4.5-1.2-8.9-2.4-13.4-3.7c-6.6-1.8-13.3-3.6-19.9-5.4
			C413.9,548.1,413.7,548.1,413.5,548z"/>
		<path class="st6" d="M349,331.8c0.4-0.8,0.6-1.8,0.9-2.6c2.4-6.2,6.2-11.3,12.1-14.7c4.8-2.8,10-3.8,15.5-3.3
			c5.1,0.5,9.8,2.1,13.9,5.1c7.8,5.7,11.3,13.5,11.1,23c-0.2,7.1-2.5,13.5-7.3,18.8c-6.1,6.7-13.7,9.6-22.7,8.7
			c-6.6-0.7-12.4-3.3-17.1-8.1c-5.3-5.4-7.6-12-7.4-19.5c0.1-2.1,0.3-4.2,0.9-6.2c0-0.1,0.1-0.2,0-0.4
			C348.8,332.3,348.9,332.1,349,331.8z"/>
		<path class="st6" d="M508.7,377.8c-0.4,0.7-0.6,1.5-0.9,2.2c-4.6,9.9-12.3,15.7-23.3,16.3c-7.5,0.4-14.2-2-19.9-6.9
			c-5.6-4.9-8.5-11.3-8.7-18.8c-0.2-9.2,2.9-17.1,9.7-23.4c5.4-5,12-7.1,19.3-6.6c6,0.4,11.4,2.4,16.1,6.4
			c6.5,5.5,9.5,12.6,9.5,21.1c0,1.9-0.2,3.8-0.6,5.6c0,0.1-0.1,0.2,0,0.3C509.4,375.3,509.1,376.5,508.7,377.8z"/>
		<path class="st6" d="M305.5,490.8c7.6-27.8,15.2-55.5,22.8-83.3c0.1,0,0.1,0,0.2,0.1c0.1,0.4-0.1,0.7-0.2,1.1
			c-5.9,21.5-11.7,42.9-17.6,64.4c-1.5,5.6-3.1,11.2-4.6,16.8c-0.1,0.3-0.1,0.6-0.3,0.9C305.6,490.8,305.6,490.8,305.5,490.8z"/>
		<path class="st6" d="M447.5,557.3c2.8,0.8,5.7,1.5,8.5,2.3c0.7,0.2,1.1,0,1.6-0.4c0.9-0.9,1.4-2,1.9-3.2c0.3-0.7,0.7-1.4,1.1-2
			c-0.6,2.1-1.1,4.1-1.7,6.2c-0.1,0.3-0.2,0.4-0.5,0.3C454.8,559.4,451.1,558.4,447.5,557.3C447.4,557.3,447.4,557.3,447.5,557.3
			C447.4,557.3,447.4,557.3,447.5,557.3z"/>
		<path class="st6" d="M300.9,517.3c-0.7-0.2-1.4-0.4-2.2-0.6c-0.3-0.1-0.3-0.1-0.2-0.4c0.6-2.3,1.3-4.5,1.9-6.8
			c0.1,0,0.1,0,0.1,0.1c-0.1,1.1-0.1,2.1-0.2,3.2c-0.1,0.8-0.1,1.6-0.1,2.4c0,0.7,0.2,1.4,0.7,2C301,517.2,301,517.3,300.9,517.3z"
			/>
		<path class="st6" d="M300.9,517.3C300.9,517.3,301,517.3,300.9,517.3c0.3-0.3,0.5-0.1,0.8-0.1c1,0.3,1.9,0.5,2.8,0.8
			c12.7,3.5,25.5,7,38.2,10.5c0.4,0.1,0.8,0.1,1,0.5c0,0,0,0.1,0,0.1C329.5,525.1,315.2,521.2,300.9,517.3z"/>
		<path class="st6" d="M413.5,548c6.8,1.9,13.7,3.7,20.5,5.6c0,0,0,0.1,0,0.1c0,0,0,0,0,0C427.1,551.8,420.3,550,413.5,548
			C413.5,548.1,413.5,548,413.5,548z"/>
		<path class="st6" d="M328.4,407.5C328.3,407.5,328.3,407.5,328.4,407.5c1.6-6.4,3.4-12.7,5.1-19.1c0,0,0.1,0,0.1,0
			c0.2,0.2,0.1,0.5,0,0.7c-1.6,5.9-3.2,11.8-4.8,17.7C328.7,407.1,328.6,407.4,328.4,407.5z"/>
		<path class="st6" d="M300.5,509.6C300.4,509.5,300.4,509.5,300.5,509.6c1.6-6.3,3.3-12.5,5-18.8c0,0,0.1,0,0.1,0
			c0.1,0.2,0.1,0.5,0,0.7c-1.6,5.8-3.2,11.6-4.8,17.4C300.8,509.2,300.7,509.4,300.5,509.6z"/>
		<path class="st6" d="M434,553.7C434,553.7,434,553.6,434,553.7c4.2,1,8.4,2.2,12.5,3.3c0.3,0.1,0.6,0.2,1,0.3c0,0,0,0.1,0,0.1
			C442.9,556.1,438.4,554.9,434,553.7z"/>
		<path class="st6" d="M300.5,509.6c0.4-1.6,0.9-3.2,1.3-4.9c1.3-4.6,2.5-9.3,3.8-13.9c0-0.2,0.1-0.3,0.1-0.5
			c7.5-27.4,15-54.9,22.5-82.3c0-0.2,0.1-0.3,0.1-0.5c0.7-2.7,1.5-5.4,2.2-8.1c0.9-3.4,1.9-6.9,2.8-10.3c0.1-0.2,0.1-0.4,0.1-0.6
			c0.9-1.9,1.6-3.8,2.9-5.5c0.5-0.7,1.1-1,2-0.8c7.3,2,14.6,4,21.9,6c6.4,1.8,12.9,3.5,19.3,5.3c1.3,0.4,1.6,0.6,1.7,2
			c0.2,1.5,0,3.1-0.3,4.6c-0.4,2.7-1.1,5.2-1.8,7.8c-1.2,4.5-2.4,9-3.7,13.4c-0.7,2.4-1.5,4.7-2.8,6.8c-0.1,0.2-0.2,0.3-0.3,0.4
			c-1,1.4-1.3,1.5-2.9,1c-2.5-0.7-5-1.3-7.4-2c-0.4-0.1-0.5-0.1-0.7,0.4c-5.6,20.6-11.3,41.3-16.9,61.9c-0.1,0.4,0,0.5,0.4,0.6
			c2.7,0.7,5.4,1.5,8.1,2.2c0.7,0.2,1,0.6,1.2,1.3c0.3,1.2,0.2,2.4,0,3.6c-0.3,2.7-0.9,5.4-1.6,8c-1.4,4.9-2.7,9.9-4.1,14.8
			c-0.7,2.5-1.6,4.9-3,7.1c-0.4,0.7-0.9,1.4-1.8,1.4c-0.2-0.1-0.4-0.1-0.7-0.2c-10.7-2.9-21.5-5.9-32.2-8.8c-3.3-0.9-6.7-1.8-10-2.7
			c-0.5-0.3-0.6-0.7-0.7-1.2c-0.3-1.3-0.2-2.6,0-3.9C300.4,511.3,300.2,510.4,300.5,509.6z"/>
	</g>
	
		<rect x="328.8" y="501.3" transform="matrix(0.9646 0.2636 -0.2636 0.9646 150.6749 -82.5863)" class="st6" width="108.5" height="37.7"/>
</g>
<ellipse class="st6" cx="235.3" cy="357.9" rx="25.5" ry="24.5"/>
<path class="st6" d="M251.3,358.2L251.3,358.2c-3-1.3-4.4-4.9-3-7.9l16.2-36.6c1.3-3,4.9-4.4,7.9-3l0,0c3,1.3,4.4,4.9,3,7.9
	l-16.2,36.6C257.9,358.1,254.3,359.5,251.3,358.2z"/>
<path class="st7" d="M479.4,215.9H250.2c-25.3,0-45.9-20.7-45.9-45.9v-9.2c0-25.3,20.7-45.9,45.9-45.9h229.2
	c25.3,0,45.9,20.7,45.9,45.9v9.2C525.3,195.2,504.7,215.9,479.4,215.9z"/>
<g>
	<path d="M294.3,152.4c0,1.5-0.6,2.7-1.7,3.6c-1.1,0.9-2.5,1.3-4.1,1.3c-1.4,0-2.7-0.4-3.8-1.2c-1.1-0.8-1.8-2-2.3-3.4l2.1-0.9
		c0.1,0.5,0.3,1,0.6,1.4c0.3,0.4,0.6,0.8,0.9,1.1c0.3,0.3,0.7,0.5,1.1,0.7c0.4,0.2,0.9,0.3,1.3,0.3c1,0,1.8-0.3,2.5-0.8
		c0.6-0.5,1-1.2,1-2.1c0-0.7-0.3-1.3-0.8-1.8c-0.5-0.5-1.4-1-2.8-1.4c-1.4-0.5-2.2-0.8-2.6-1c-1.8-0.9-2.7-2.3-2.7-4.1
		c0-1.3,0.5-2.3,1.5-3.2c1-0.9,2.3-1.3,3.8-1.3c1.3,0,2.4,0.3,3.4,1c1,0.7,1.6,1.5,1.9,2.5l-2.1,0.9c-0.2-0.6-0.6-1.2-1.1-1.6
		c-0.6-0.4-1.3-0.6-2.1-0.6c-0.9,0-1.6,0.2-2.2,0.7c-0.6,0.4-0.9,1-0.9,1.8c0,0.6,0.2,1.1,0.7,1.5c0.5,0.4,1.6,0.9,3.3,1.5
		c1.7,0.6,3,1.3,3.7,2.2C293.9,150.1,294.3,151.2,294.3,152.4z"/>
	<path d="M297.7,157h-2.4l6.5-17.2h2.5l6.5,17.2h-2.4l-1.7-4.7h-7.2L297.7,157z M302.9,142.5l-2.8,7.8h5.7L302.9,142.5L302.9,142.5z
		"/>
	<path d="M314.9,157h-2.2v-17.2h2.2l6,10.5h0.1l6-10.5h2.2V157H327v-10.2l0.1-2.9H327l-5.4,9.4h-1.3l-5.4-9.4h-0.1l0.1,2.9V157z"/>
	<path d="M342.7,139.8v2.1h-7.8v5.4h7.1v2.1h-7.1v5.4h7.8v2.1h-10v-17.2H342.7z"/>
	<path d="M367.7,139.8h2.3l-4.6,17.2h-2.3l-3.7-11.3h-0.1l-3.7,11.3h-2.3l-4.8-17.2h2.3l3.6,13.5h0.1l3.7-11.2h2.1l3.7,11.2h0.1
		L367.7,139.8z"/>
	<path d="M372,157h-2.4l6.5-17.2h2.5L385,157h-2.4l-1.7-4.7h-7.2L372,157z M377.3,142.5l-2.8,7.8h5.7L377.3,142.5L377.3,142.5z"/>
	<path d="M391.8,149v8h-2.2v-8l-5.8-9.2h2.6l4.2,7h0.1l4.2-7h2.6L391.8,149z"/>
	<path d="M410.4,149v8h-2.2v-8l-5.8-9.2h2.6l4.2,7h0.1l4.2-7h2.6L410.4,149z"/>
	<path d="M433.9,148.4c0,2.5-0.8,4.7-2.5,6.4c-1.7,1.7-3.8,2.6-6.3,2.6c-2.5,0-4.6-0.9-6.3-2.6c-1.7-1.7-2.5-3.8-2.5-6.4
		s0.8-4.7,2.5-6.4c1.7-1.7,3.8-2.6,6.3-2.6s4.6,0.9,6.3,2.6C433.1,143.7,433.9,145.9,433.9,148.4z M418.5,148.4c0,2,0.6,3.6,1.9,4.9
		c1.3,1.3,2.8,1.9,4.7,1.9s3.4-0.6,4.7-1.9c1.3-1.3,1.9-2.9,1.9-4.9s-0.6-3.6-1.9-4.9c-1.2-1.3-2.8-1.9-4.7-1.9s-3.4,0.6-4.7,1.9
		C419.2,144.8,418.5,146.4,418.5,148.4z"/>
	<path d="M442.5,157.4c-1.9,0-3.4-0.6-4.6-1.9c-1.2-1.2-1.8-2.9-1.8-4.9v-10.8h2.2v10.9c0,1.4,0.4,2.5,1.1,3.3
		c0.7,0.8,1.8,1.2,3,1.2s2.3-0.4,3-1.2c0.7-0.8,1.1-1.9,1.1-3.3v-10.9h2.2v10.8c0,2.1-0.6,3.7-1.7,4.9
		C446,156.8,444.5,157.4,442.5,157.4z"/>
	<path d="M254.1,168.6h2.3l-4.6,17.2h-2.3l-3.7-11.3h-0.1l-3.7,11.3h-2.3l-4.8-17.2h2.3l3.6,13.5h0.1l3.7-11.2h2.1l3.7,11.2h0.1
		L254.1,168.6z"/>
	<path d="M275.1,177.2c0,2.5-0.8,4.7-2.5,6.4c-1.7,1.7-3.8,2.6-6.3,2.6c-2.5,0-4.6-0.9-6.3-2.6c-1.7-1.7-2.5-3.8-2.5-6.4
		s0.8-4.7,2.5-6.4c1.7-1.7,3.8-2.6,6.3-2.6c2.5,0,4.6,0.9,6.3,2.6C274.2,172.5,275.1,174.7,275.1,177.2z M259.7,177.2
		c0,2,0.6,3.6,1.9,4.9c1.3,1.3,2.8,1.9,4.7,1.9c1.9,0,3.4-0.6,4.7-1.9c1.3-1.3,1.9-2.9,1.9-4.9s-0.6-3.6-1.9-4.9
		c-1.2-1.3-2.8-1.9-4.7-1.9c-1.9,0-3.4,0.6-4.7,1.9C260.3,173.6,259.7,175.2,259.7,177.2z"/>
	<path d="M283.7,186.2c-1.9,0-3.4-0.6-4.6-1.9c-1.2-1.2-1.8-2.9-1.8-4.9v-10.8h2.2v10.9c0,1.4,0.4,2.5,1.1,3.3
		c0.7,0.8,1.8,1.2,3,1.2s2.3-0.4,3-1.2c0.7-0.8,1.1-1.9,1.1-3.3v-10.9h2.2v10.8c0,2.1-0.6,3.7-1.7,4.9
		C287.2,185.6,285.6,186.2,283.7,186.2z"/>
	<path d="M302.8,185.8h-9.6v-17.2h2.2v15.1h7.4V185.8z"/>
	<path d="M305.1,185.8v-17.2h5.3c2.6,0,4.7,0.8,6.3,2.4c1.6,1.6,2.4,3.7,2.4,6.2c0,2.6-0.8,4.7-2.4,6.2c-1.6,1.6-3.7,2.4-6.3,2.4
		H305.1z M307.3,170.7v13h3c2,0,3.6-0.6,4.7-1.7c1.2-1.1,1.7-2.7,1.7-4.8c0-2-0.6-3.6-1.7-4.8c-1.2-1.2-2.7-1.7-4.7-1.7H307.3z"/>
	<path d="M336.8,181.2c0,1.5-0.6,2.7-1.7,3.6c-1.1,0.9-2.5,1.3-4.1,1.3c-1.4,0-2.7-0.4-3.8-1.2c-1.1-0.8-1.8-2-2.3-3.4l2.1-0.9
		c0.1,0.5,0.3,1,0.6,1.4c0.3,0.4,0.6,0.8,0.9,1.1c0.3,0.3,0.7,0.5,1.1,0.7c0.4,0.2,0.9,0.3,1.3,0.3c1,0,1.8-0.3,2.5-0.8
		c0.6-0.5,1-1.2,1-2.1c0-0.7-0.3-1.3-0.8-1.8c-0.5-0.5-1.4-1-2.8-1.4c-1.4-0.5-2.2-0.8-2.6-1c-1.8-0.9-2.7-2.3-2.7-4.1
		c0-1.3,0.5-2.3,1.5-3.2c1-0.9,2.3-1.3,3.8-1.3c1.3,0,2.4,0.3,3.4,1c1,0.7,1.6,1.5,1.9,2.5l-2.1,0.9c-0.2-0.6-0.6-1.2-1.1-1.6
		c-0.6-0.4-1.3-0.6-2.1-0.6c-0.9,0-1.6,0.2-2.2,0.7c-0.6,0.4-0.9,1-0.9,1.8c0,0.6,0.2,1.1,0.7,1.5c0.5,0.4,1.6,0.9,3.3,1.5
		c1.7,0.6,3,1.3,3.7,2.2C336.5,178.9,336.8,180,336.8,181.2z"/>
	<path d="M340.3,185.8h-2.4l6.5-17.2h2.5l6.5,17.2h-2.4l-1.7-4.7h-7.2L340.3,185.8z M345.5,171.3l-2.8,7.8h5.7L345.5,171.3
		L345.5,171.3z"/>
	<path d="M360,177.8v8h-2.2v-8l-5.8-9.2h2.6l4.2,7h0.1l4.2-7h2.6L360,177.8z"/>
	<path d="M380.6,186.2c-2.5,0-4.7-0.9-6.4-2.6c-1.7-1.7-2.5-3.8-2.5-6.4s0.8-4.7,2.5-6.4c1.7-1.7,3.8-2.6,6.4-2.6
		c2.6,0,4.7,0.9,6.3,2.8l-1.6,1.5c-1.2-1.5-2.8-2.2-4.7-2.2c-1.9,0-3.5,0.6-4.8,1.9c-1.3,1.3-1.9,2.9-1.9,4.9s0.6,3.7,1.9,4.9
		c1.3,1.3,2.9,1.9,4.8,1.9c2,0,3.7-0.8,5.2-2.5l1.6,1.6c-0.8,1-1.8,1.7-3,2.3S382,186.2,380.6,186.2z"/>
	<path d="M391,185.8h-2.4l6.5-17.2h2.5l6.5,17.2h-2.4l-1.7-4.7h-7.2L391,185.8z M396.3,171.3l-2.8,7.8h5.7L396.3,171.3L396.3,171.3z
		"/>
	<path d="M408.3,185.8h-2.2v-17.2h5.9c1.5,0,2.8,0.5,3.8,1.5s1.6,2.2,1.6,3.6c0,1.2-0.4,2.2-1.2,3.2s-1.8,1.5-2.9,1.8l0,0.1l4.8,7
		v0.1h-2.6l-4.6-7h-2.4V185.8z M408.3,170.7v6h3.6c0.9,0,1.7-0.3,2.3-0.9c0.6-0.6,0.9-1.3,0.9-2.2c0-0.8-0.3-1.5-0.9-2.1
		c-0.6-0.6-1.3-0.9-2.2-0.9H408.3z"/>
	<path d="M419.9,185.8v-17.2h5.3c2.6,0,4.7,0.8,6.3,2.4s2.4,3.7,2.4,6.2c0,2.6-0.8,4.7-2.4,6.2c-1.6,1.6-3.7,2.4-6.3,2.4H419.9z
		 M422.1,170.7v13h3c2,0,3.6-0.6,4.7-1.7c1.2-1.1,1.7-2.7,1.7-4.8c0-2-0.6-3.6-1.7-4.8c-1.2-1.2-2.7-1.7-4.7-1.7H422.1z"/>
	<path d="M438.7,185.8h-2.2v-17.2h2.2V185.8z"/>
	<path d="M458.5,177.9c0,2.4-0.7,4.3-2.1,5.7c-1.6,1.7-3.7,2.5-6.3,2.5c-2.5,0-4.6-0.9-6.3-2.6c-1.7-1.7-2.6-3.9-2.6-6.4
		s0.9-4.7,2.6-6.4c1.7-1.7,3.8-2.6,6.3-2.6c1.3,0,2.5,0.2,3.6,0.7c1.1,0.4,2,1.1,2.8,1.9l-1.6,1.6c-0.5-0.6-1.2-1.1-2.1-1.5
		c-0.8-0.4-1.7-0.5-2.7-0.5c-1.9,0-3.5,0.6-4.8,1.9c-1.3,1.3-1.9,3-1.9,4.9s0.6,3.6,1.9,4.9c1.3,1.3,2.9,1.9,4.8,1.9
		c1.7,0,3.1-0.5,4.3-1.4s1.8-2.3,2-4H450v-2.1h8.3C458.4,177,458.5,177.5,458.5,177.9z"/>
	<path d="M461.9,185.8h-2.4l6.5-17.2h2.5l6.5,17.2h-2.4l-1.7-4.7h-7.2L461.9,185.8z M467.2,171.3l-2.8,7.8h5.7L467.2,171.3
		L467.2,171.3z"/>
	<path d="M479.2,185.8H477v-17.2h2.7L488,182h0.1l-0.1-3.3v-10.1h2.2v17.2h-2.3l-8.7-14h-0.1l0.1,3.3V185.8z"/>
	<path d="M496.4,184.3c0,0.4-0.2,0.8-0.5,1.2c-0.3,0.3-0.7,0.5-1.2,0.5c-0.4,0-0.8-0.2-1.2-0.5s-0.5-0.7-0.5-1.2
		c0-0.5,0.2-0.9,0.5-1.2c0.3-0.3,0.7-0.5,1.2-0.5c0.5,0,0.9,0.2,1.2,0.5C496.2,183.5,496.4,183.8,496.4,184.3z M495.6,180.5h-1.7
		l-0.2-6.4v-5.4h2.2v5.4L495.6,180.5z"/>
</g>
<circle class="st8" cx="307.8" cy="258.4" r="17"/>
<circle class="st8" cx="312" cy="306.5" r="11.6"/>
<circle class="st8" cx="323.5" cy="338" r="7.9"/>
</svg>
