<?xml version="1.0" encoding="utf-8"?>
<!-- Generator: Adobe Illustrator 22.1.0, SVG Export Plug-In . SVG Version: 6.00 Build 0)  -->
<svg version="1.1" id="Layer_1" xmlns="http://www.w3.org/2000/svg" xmlns:xlink="http://www.w3.org/1999/xlink" x="0px" y="0px"
	 viewBox="0 0 720 720" style="enable-background:new 0 0 720 720;" xml:space="preserve">
<style type="text/css">
	.st0{fill:#02BBE2;}
	.st1{fill:none;stroke:#000000;stroke-width:5;stroke-linecap:round;stroke-linejoin:round;stroke-miterlimit:10;}
	.st2{opacity:0.16;fill:#483318;}
	.st3{opacity:0.54;fill:#B08874;}
	.st4{opacity:0.4;fill:#7B7C7F;}
	.st5{fill:none;stroke:#000000;stroke-miterlimit:10;}
	.st6{fill:#FFFFFF;stroke:#000000;stroke-width:3;stroke-miterlimit:10;}
	.st7{opacity:0.47;fill:#737144;}
	.st8{fill:#FFFFFF;stroke:#000000;stroke-width:2;stroke-miterlimit:10;}
</style>
<g>
	<g>
		<path class="st0" d="M394.6,75.1c-2.5,0-4.6-0.8-6.3-2.5c-1.7-1.7-2.5-3.8-2.5-6.3c0-2.5,0.8-4.6,2.5-6.3c1.7-1.7,3.8-2.6,6.3-2.6
			c2.6,0,4.6,0.9,6.2,2.8l-1.6,1.5c-1.2-1.5-2.8-2.2-4.7-2.2c-1.9,0-3.4,0.6-4.7,1.9c-1.2,1.2-1.9,2.9-1.9,4.9c0,2,0.6,3.6,1.9,4.9
			c1.3,1.3,2.8,1.9,4.7,1.9c2,0,3.7-0.8,5.1-2.5l1.6,1.5c-0.8,1-1.8,1.7-3,2.2C397.2,74.9,396,75.1,394.6,75.1z"/>
		<path class="st0" d="M407.5,62.8c1.6,0,2.9,0.4,3.8,1.3c0.9,0.9,1.4,2,1.4,3.5v7.1h-2.1v-1.6h-0.1c-0.9,1.3-2.1,2-3.6,2
			c-1.3,0-2.3-0.4-3.2-1.1c-0.9-0.8-1.3-1.7-1.3-2.8c0-1.2,0.5-2.2,1.4-2.9c0.9-0.7,2.1-1.1,3.6-1.1c1.3,0,2.4,0.2,3.2,0.7v-0.5
			c0-0.8-0.3-1.4-0.9-1.9c-0.6-0.5-1.3-0.8-2.1-0.8c-1.2,0-2.2,0.5-2.9,1.5l-1.9-1.2C403.8,63.5,405.4,62.8,407.5,62.8z M404.7,71.2
			c0,0.6,0.2,1,0.7,1.4c0.5,0.4,1,0.6,1.7,0.6c0.9,0,1.7-0.3,2.5-1c0.7-0.7,1.1-1.5,1.1-2.4c-0.7-0.5-1.6-0.8-2.8-0.8
			c-0.9,0-1.6,0.2-2.2,0.6C404.9,70,404.7,70.6,404.7,71.2z"/>
		<path class="st0" d="M417.3,74.8h-2.2V63.2h2.1v1.9h0.1c0.2-0.6,0.7-1.1,1.4-1.6c0.7-0.4,1.4-0.7,2-0.7c0.6,0,1.2,0.1,1.6,0.3
			l-0.7,2.1c-0.3-0.1-0.7-0.2-1.3-0.2c-0.8,0-1.5,0.3-2.1,1c-0.6,0.7-0.9,1.4-0.9,2.3V74.8z"/>
		<path class="st0" d="M427.9,75.1c-1.5,0-2.8-0.6-3.9-1.8c-1.1-1.2-1.6-2.7-1.6-4.4c0-1.7,0.5-3.2,1.6-4.4c1.1-1.2,2.4-1.8,3.9-1.8
			c0.9,0,1.6,0.2,2.3,0.5c0.7,0.4,1.2,0.8,1.6,1.4h0.1l-0.1-1.6v-5.4h2.2v16.9h-2.1v-1.6h-0.1c-0.4,0.6-0.9,1.1-1.6,1.4
			C429.5,75,428.7,75.1,427.9,75.1z M428.2,73.1c1.1,0,1.9-0.4,2.6-1.2c0.7-0.8,1.1-1.8,1.1-3c0-1.2-0.4-2.2-1.1-3
			c-0.7-0.8-1.6-1.2-2.6-1.2c-1,0-1.9,0.4-2.6,1.2c-0.7,0.8-1.1,1.8-1.1,3c0,1.2,0.4,2.2,1.1,3C426.3,72.8,427.2,73.1,428.2,73.1z"
			/>
		<path class="st0" d="M439.5,59.2c0,0.4-0.2,0.8-0.4,1.1c-0.3,0.3-0.7,0.4-1.1,0.4c-0.4,0-0.8-0.1-1.1-0.4
			c-0.3-0.3-0.4-0.7-0.4-1.1c0-0.4,0.1-0.8,0.4-1.1c0.3-0.3,0.7-0.4,1.1-0.4c0.4,0,0.8,0.1,1.1,0.4
			C439.3,58.4,439.5,58.7,439.5,59.2z M439,63.2v11.6h-2.2V63.2H439z"/>
		<path class="st0" d="M446.9,80.3c-0.6,0-1.3-0.1-1.8-0.2s-1.1-0.4-1.6-0.7c-0.5-0.3-0.9-0.7-1.2-1.1c-0.3-0.4-0.6-0.9-0.8-1.4
			l2.1-0.9c0.2,0.7,0.6,1.2,1.2,1.6c0.6,0.4,1.3,0.6,2,0.6c1.2,0,2.1-0.4,2.8-1.1c0.7-0.7,1-1.7,1-2.9v-1.1h-0.1
			c-0.4,0.6-1,1.1-1.7,1.5c-0.7,0.4-1.5,0.5-2.3,0.5c-1.5,0-2.8-0.6-3.9-1.8c-1.1-1.2-1.6-2.7-1.6-4.4c0-1.7,0.5-3.2,1.6-4.4
			c1.1-1.2,2.4-1.8,3.9-1.8c0.8,0,1.6,0.2,2.3,0.5c0.7,0.4,1.3,0.8,1.7,1.5h0.1v-1.6h2.1v11.1c0,1.9-0.5,3.3-1.6,4.4
			C450.1,79.7,448.7,80.3,446.9,80.3z M447,73.1c1.1,0,1.9-0.4,2.6-1.2c0.7-0.8,1.1-1.8,1.1-3c0-1.2-0.4-2.2-1.1-3
			c-0.7-0.8-1.6-1.2-2.6-1.2c-1,0-1.9,0.4-2.6,1.2c-0.7,0.8-1.1,1.8-1.1,3c0,1.2,0.4,2.2,1.1,3C445,72.8,445.9,73.1,447,73.1z"/>
		<path class="st0" d="M458.2,59.2c0,0.4-0.2,0.8-0.4,1.1c-0.3,0.3-0.7,0.4-1.1,0.4c-0.4,0-0.8-0.1-1.1-0.4
			c-0.3-0.3-0.4-0.7-0.4-1.1c0-0.4,0.1-0.8,0.4-1.1c0.3-0.3,0.7-0.4,1.1-0.4c0.4,0,0.8,0.1,1.1,0.4C458,58.4,458.2,58.7,458.2,59.2z
			 M457.7,63.2v11.6h-2.2V63.2H457.7z"/>
		<path class="st0" d="M460.6,63.2h2.1v1.6h0.1c0.3-0.6,0.8-1,1.5-1.4c0.7-0.4,1.4-0.6,2.1-0.6c1.4,0,2.5,0.4,3.3,1.2
			c0.8,0.8,1.1,2,1.1,3.5v7.3h-2.2v-7.1c0-1.9-1-2.8-2.9-2.8c-0.9,0-1.6,0.4-2.2,1.1c-0.6,0.7-0.9,1.5-0.9,2.5v6.4h-2.2V63.2z"/>
		<path class="st0" d="M486.5,75.1c-2.5,0-4.6-0.8-6.3-2.5c-1.7-1.7-2.5-3.8-2.5-6.3c0-2.5,0.8-4.6,2.5-6.3c1.7-1.7,3.8-2.6,6.3-2.6
			c2.6,0,4.6,0.9,6.2,2.8l-1.6,1.5c-1.2-1.5-2.8-2.2-4.7-2.2c-1.9,0-3.4,0.6-4.7,1.9c-1.2,1.2-1.9,2.9-1.9,4.9c0,2,0.6,3.6,1.9,4.9
			c1.3,1.3,2.8,1.9,4.7,1.9c2,0,3.7-0.8,5.1-2.5l1.6,1.5c-0.8,1-1.8,1.7-3,2.2C489.1,74.9,487.9,75.1,486.5,75.1z"/>
		<path class="st0" d="M499.3,62.8c1.6,0,2.9,0.4,3.8,1.3c0.9,0.9,1.4,2,1.4,3.5v7.1h-2.1v-1.6h-0.1c-0.9,1.3-2.1,2-3.6,2
			c-1.3,0-2.3-0.4-3.2-1.1c-0.9-0.8-1.3-1.7-1.3-2.8c0-1.2,0.5-2.2,1.4-2.9c0.9-0.7,2.1-1.1,3.6-1.1c1.3,0,2.4,0.2,3.2,0.7v-0.5
			c0-0.8-0.3-1.4-0.9-1.9c-0.6-0.5-1.3-0.8-2.1-0.8c-1.2,0-2.2,0.5-2.9,1.5l-1.9-1.2C495.7,63.5,497.3,62.8,499.3,62.8z M496.5,71.2
			c0,0.6,0.2,1,0.7,1.4c0.5,0.4,1,0.6,1.7,0.6c0.9,0,1.7-0.3,2.5-1c0.7-0.7,1.1-1.5,1.1-2.4c-0.7-0.5-1.6-0.8-2.8-0.8
			c-0.9,0-1.6,0.2-2.2,0.6C496.8,70,496.5,70.6,496.5,71.2z"/>
		<path class="st0" d="M507,63.2h2.1v1.9h0.1c0.6-1.5,2-2.2,4-2.2l0.4,0v2.3l-1-0.1c-1,0-1.8,0.3-2.5,0.9c-0.7,0.6-1,1.4-1,2.4v6.4
			H507V63.2z M520.6,74.9c-0.9,0-1.7-0.3-2.4-0.9c-0.6-0.6-0.9-1.4-1-2.4v-6.5h-2v-2h2v-3.6h2.2v3.6h2.8v2h-2.8v5.8
			c0,0.8,0.1,1.3,0.4,1.6c0.3,0.3,0.6,0.4,1,0.4c0.2,0,0.3,0,0.5-0.1c0.2,0,0.3-0.1,0.5-0.2l0.7,1.9C522,74.8,521.4,74.9,520.6,74.9
			z"/>
		<path class="st0" d="M523.6,69c0-1.8,0.6-3.3,1.7-4.4c1.1-1.2,2.6-1.8,4.3-1.8c1.7,0,3.1,0.6,4.3,1.8c1.1,1.2,1.7,2.6,1.7,4.4
			c0,1.8-0.6,3.3-1.7,4.4c-1.1,1.2-2.5,1.8-4.3,1.8c-1.7,0-3.1-0.6-4.3-1.8C524.2,72.2,523.6,70.7,523.6,69z M525.8,69
			c0,1.2,0.4,2.3,1.1,3c0.7,0.8,1.6,1.2,2.7,1.2c1.1,0,2-0.4,2.7-1.2c0.7-0.8,1.1-1.8,1.1-3c0-1.2-0.4-2.2-1.1-3
			c-0.7-0.8-1.6-1.2-2.7-1.2c-1.1,0-2,0.4-2.7,1.2C526.1,66.7,525.8,67.7,525.8,69z"/>
		<path class="st0" d="M536.9,69c0-1.8,0.6-3.3,1.7-4.4c1.1-1.2,2.6-1.8,4.3-1.8c1.7,0,3.1,0.6,4.3,1.8c1.1,1.2,1.7,2.6,1.7,4.4
			c0,1.8-0.6,3.3-1.7,4.4c-1.1,1.2-2.5,1.8-4.3,1.8c-1.7,0-3.1-0.6-4.3-1.8C537.4,72.2,536.9,70.7,536.9,69z M539,69
			c0,1.2,0.4,2.3,1.1,3c0.7,0.8,1.6,1.2,2.7,1.2c1.1,0,2-0.4,2.7-1.2c0.7-0.8,1.1-1.8,1.1-3c0-1.2-0.4-2.2-1.1-3
			c-0.7-0.8-1.6-1.2-2.7-1.2c-1.1,0-2,0.4-2.7,1.2C539.4,66.7,539,67.7,539,69z"/>
		<path class="st0" d="M550.5,63.2h2.1v1.6h0.1c0.3-0.6,0.8-1,1.5-1.4c0.7-0.4,1.4-0.6,2.1-0.6c1.4,0,2.5,0.4,3.3,1.2
			c0.8,0.8,1.1,2,1.1,3.5v7.3h-2.2v-7.1c0-1.9-1-2.8-2.9-2.8c-0.9,0-1.6,0.4-2.2,1.1c-0.6,0.7-0.9,1.5-0.9,2.5v6.4h-2.2V63.2z"/>
	</g>
</g>
<rect x="162.3" y="88.9" class="st1" width="404" height="568"/>
<g>
	<polygon class="st2" points="436.8,244.5 411.9,230.2 381.1,224.6 353.7,214.7 335.8,223.2 317.5,239.8 296.2,271.2 287.3,298.8 
		269.9,360.4 249.4,418 212.4,488.1 235.7,494.7 243.4,487 244.4,494.5 260.4,501.7 279.2,507 282.6,480.4 297.7,456.6 316.1,443.1 
		346,432.9 348.9,426.4 354.8,423.9 353.2,411 327.5,395.4 311.4,375.3 306.7,355.2 308.3,334.9 314.7,315.9 339.9,252.4 
		347.7,243.2 360.5,238.5 377.8,243.4 377.5,277.6 389.1,324.5 409.6,362.5 406.8,372.2 399.3,387.7 385.9,405.7 371.4,413 
		373.2,425 377.3,425.1 380.3,429.1 379,433.9 402.8,440.4 413.7,446.9 431.8,460.3 452,495.1 503.8,502.4 501.8,488.4 494.8,471.4 
		480.8,443.4 472.6,418.9 470.6,381.9 464.4,323 455.8,287.3 448.1,263.3 	"/>
	<path class="st3" d="M409.6,362.5c-0.1,4.1-6.1,19.7-11.1,28c-11.1,18.7-31.6,27.6-49.8,18.1c-37.8-19.7-53.5-49.5-32.5-94.4
		c19.6-41.8,19.4-84.9,52-73.6c3.3,1.2,9.8,1.3,9.6,5.1C373.1,318.9,409.9,351.4,409.6,362.5z"/>
	<polygon class="st3" points="372.2,432 354.8,431.2 354.2,411.3 371.6,412.1 	"/>
	<polygon class="st4" points="307.5,656.9 266.8,657.4 276.8,627.4 280.8,578.6 282,543.6 280.1,507.8 284.1,478.8 297.4,457.6 
		318.5,441.7 335.4,437.2 330.5,454.5 334.3,496.1 335.8,535 333.1,581 317.6,640.4 	"/>
	<polygon class="st4" points="421.7,606.1 409,522.4 396.9,473.3 384.7,435.5 412.8,446.6 428.5,457.3 440,475.1 450.8,495.8 
		458.8,530.4 460.8,656.4 421.8,656.4 	"/>
	<g>
		<g>
			<path d="M376.3,243.9c-4,49.1,12.8,98.8,45.8,135.4c1.3,1.4,3.4-0.7,2.1-2.1c-32.5-36.1-48.9-85-44.9-133.3
				C379.4,242,376.4,242,376.3,243.9L376.3,243.9z"/>
		</g>
	</g>
	<g>
		<g>
			<path d="M406.4,366.5c-5.9,17-13.6,37.8-32.8,43.4c-17.4,5.1-37.4-8.3-49.2-20.1c-13.8-13.8-19.1-31.3-15.2-50.5
				c3.9-19.3,12.7-37.8,19.7-56.1c3.9-10.1,7-21.2,12.7-30.5c5.5-8.9,17.2-16.5,27-9.3c1.6,1.1,3.1-1.5,1.5-2.6
				c-6.8-4.9-15.8-3.8-22.5,0.8c-7.3,5-11.2,13.5-14.3,21.5c-4.7,11.8-9.1,23.8-13.6,35.6c-4.2,11.1-8.9,22.1-12,33.6
				c-5.4,19.9-3.1,39.2,10.4,55.2c6.1,7.2,13.6,13.1,21.7,17.8c8.7,5.1,18.7,9.5,29,8.5c23.6-2.3,33.7-27.3,40.4-46.6
				C410,365.5,407.1,364.7,406.4,366.5L406.4,366.5z"/>
		</g>
	</g>
	<g>
		<g>
			<path d="M352.1,290c-7,3.9-11.9,14.3-4.1,20.1c9,6.7,16-4.1,17.3-12.2c1.2-7.8-5.4-17.6-14.1-13.5c-2.5,1.2-4.3,3.5-6.6,5
				c-2.6,1.7-5.5,2.5-8.6,2.6c-6.2,0.3-12.2-2.6-15.7-7.7c-1.1-1.6-3.7-0.1-2.6,1.5c5.9,8.6,18,11.9,27.3,6.7
				c2.9-1.6,5.3-5.1,8.6-5.9c8.3-2.1,9.6,8.7,7.9,13.9c-1.8,5.3-6.9,12-12.5,6.6c-5.1-5-0.2-11.9,4.6-14.5
				C355.3,291.7,353.8,289.1,352.1,290L352.1,290z"/>
		</g>
	</g>
	<g>
		<g>
			<path d="M359.9,343.3c-2.2,3.1-4.5,6.1-6.7,9.2c-0.4,0.5-0.2,1.4,0.2,1.8c4.1,3.5,9.1,5.3,14.6,5.1c1.9-0.1,1.9-3.1,0-3
				c-4.6,0.1-8.9-1.3-12.4-4.3c0.1,0.6,0.2,1.2,0.2,1.8c2.2-3.1,4.5-6.1,6.7-9.2C363.6,343.3,361,341.8,359.9,343.3L359.9,343.3z"/>
		</g>
	</g>
	<g>
		<g>
			<path d="M352.5,214.5c-35.8,11.9-55.7,46.8-66.5,80.8c-6.7,21.1-11.1,42.9-17.3,64.1c-6.3,21.2-14,42-23,62.2
				c-10.1,22.5-21.9,44.2-35.1,65c-1,1.6,1.6,3.1,2.6,1.5c22.4-35.1,40.5-72.9,53.6-112.4c6.8-20.3,11.6-41.1,17.1-61.8
				c5.3-19.7,11.6-39.5,22.5-56.9c11.1-17.7,26.9-32.9,47.1-39.6C355.1,216.8,354.3,213.9,352.5,214.5L352.5,214.5z"/>
		</g>
	</g>
	<g>
		<g>
			<path d="M354.8,215.6c22.3,12.7,50.6,9.1,72,23.6c12.6,8.5,19.3,22.8,24.3,36.7c5.3,14.6,8.8,29.9,11.2,45.2
				c3.9,24.5,5.1,49.3,7.8,73.9c0.3,2.7,0.3,6.6,0.4,9.7c0.3,11.8,2.5,23.2,6.9,34.2c4.3,10.8,10.3,20.7,15.6,30.9
				c5.1,9.7,9.4,19.9,8.8,31c-0.1,1.9,2.9,1.9,3,0c1.1-19.8-12.1-36.7-20.4-53.6c-5.7-11.6-9.8-24-10.7-37
				c-0.3-4.9-0.1-9.8-0.5-14.7c-2.1-22.7-3.7-45.5-6.8-68c-2.2-15.7-5.3-31.3-10.2-46.4c-4.2-13-9.5-26.4-18.7-36.7
				c-20.9-23.1-55.6-16.9-81.1-31.4C354.6,212.1,353.1,214.6,354.8,215.6L354.8,215.6z"/>
		</g>
	</g>
	<g>
		<g>
			<path d="M352.3,411.8c1.7,6.5,1.6,12.8,0.4,19.3c-0.4,1.9,2.5,2.7,2.9,0.8c1.3-7.1,1.4-13.9-0.4-20.9
				C354.7,409.1,351.8,409.9,352.3,411.8L352.3,411.8z"/>
		</g>
	</g>
	<g>
		<g>
			<path d="M369.9,413.4c1.5,5.9,1.9,11.7,1.2,17.7c-0.2,1.9,2.8,1.9,3,0c0.8-6.3,0.4-12.4-1.3-18.5
				C372.3,410.7,369.4,411.5,369.9,413.4L369.9,413.4z"/>
		</g>
	</g>
	<g>
		<g>
			<path d="M352.8,429.8c-26.7,4.6-57.4,19.2-68.6,45.5c-7.4,17.3-6.1,38.6-5.6,56.9c0.6,20.6,1.1,41-0.5,61.6
				c-1.6,20.4-4,41.4-11.2,60.6c-0.7,1.8,2.2,2.6,2.9,0.8c5.9-15.5,8.4-32.2,10.1-48.6c2-18.3,2.9-36.6,2.4-55
				c-0.6-21.4-2.4-43.1,1.5-64.3c2.8-15.3,12.5-27.6,24.9-36.4c13.2-9.4,28.9-15.5,44.9-18.2C355.5,432.4,354.7,429.5,352.8,429.8
				L352.8,429.8z"/>
		</g>
	</g>
	<circle class="st5" cx="357.8" cy="385.4" r="6.5"/>
	<g>
		<g>
			<g>
				<path d="M372.5,434.7c15.7,2.6,31.3,7.7,44.9,16c14.2,8.7,20.1,22.7,27.2,37.2c4.8,9.9,7.3,19.9,9.6,30.6
					c1.3,6.2,2.8,12.3,3,18.6c0.8,29.4,1.3,58.9,1.9,88.3c0.2,10-0.4,20.5,0.7,30.5c0.2,1.9,3.2,1.9,3,0c-1-8.7-0.5-17.8-0.7-26.6
					c-0.4-17.3-0.7-34.6-1.1-51.9c-0.3-13.4-0.5-26.7-0.9-40.1c-0.2-5.5-1.3-10.7-2.4-16.1c-2.1-10.2-4.1-20.7-8.4-30.2
					c-6.7-14.8-13.3-31-27-40.6c-14.3-10-32-15.9-49.1-18.7C371.4,431.5,370.6,434.4,372.5,434.7L372.5,434.7z"/>
			</g>
		</g>
		<g>
			<g>
				<path d="M334.8,435.4c-7.8,14.9-5.6,31.7-3.5,47.8c2.5,19.3,3.6,38.6,2.9,58.1c-0.7,20-3.2,40-7.4,59.6
					c-3.9,18.2-8.4,37.5-19.5,52.7c-1.1,1.6,1.5,3.1,2.6,1.5c10.6-14.5,15.1-32.5,19-49.7c4.2-18.6,6.9-37.5,8-56.5
					c1.1-19.5,0.5-39.1-1.7-58.6c-2-17.6-6.4-36.8,2.2-53.3C338.3,435.2,335.7,433.7,334.8,435.4L334.8,435.4z"/>
			</g>
		</g>
		<g>
			<g>
				<path d="M381.9,436.4c16.5,36.6,24.7,76.5,30.5,116.1c2.4,16.5,5.1,33.4,6.2,50.1c0.6,9.2,0.8,18.4,1.2,27.6
					c0.4,8.9,0.4,17.9,1.2,26.8c0.2,1.9,3.2,1.9,3,0c-1.5-17.6-1.4-35.5-2.3-53.2c-0.7-15.1-3.3-30.2-5.3-45.2
					c-2.8-20.3-6.3-40.5-10.9-60.4c-5.1-21.7-11.7-43-20.8-63.3C383.7,433.1,381.1,434.6,381.9,436.4L381.9,436.4z"/>
			</g>
		</g>
		<g>
			<g>
				<path d="M355,433.4c5.7-0.1,11.3,0.3,16.9,1.4c1.9,0.3,2.7-2.5,0.8-2.9c-5.9-1.1-11.8-1.6-17.7-1.5
					C353,430.4,353,433.4,355,433.4L355,433.4z"/>
			</g>
		</g>
	</g>
	<path class="st6" d="M374.4,436.3l-21,0.6c-3.3,0.1-6.1-2.5-6.2-5.8v0c-0.1-3.3,2.5-6.1,5.8-6.2l21-0.6c3.3-0.1,6.1,2.5,6.2,5.8
		l0,0C380.4,433.5,377.7,436.2,374.4,436.3z"/>
</g>
<path class="st7" d="M564.8,656.4h-104l-2-124l-9-37l53,6l-3-22l-9.3-20.1l-12.7-21.9l-4.1-22.6l-3.5-44.8l-4.3-49.2l-9.3-39.2
	l-7-18.7l-10.7-16.7l-19-14l-12.4-3.5l-10.6-3.1c-13.8-0.6-28.1-3.5-39.3-11.6v0L335.7,225l-17.2,15.8l-13.9,18.8l-9.2,17.1
	l-7.2,20.8l-7.9,26.9l-8.6,32.9l-24,63.8l-23.4,44.2L211,485.4l24.7,8.3l7.6-8.2l0.9,7.6l16.7,7l19.2,5.7l-1.2,28.8l1,28.4
	l-0.1,33.3l-4,34l-8,25l-106,1l2-488l-1-80h402l1,50L564.8,656.4z"/>
<path class="st6" d="M366.9,194.3H225.8c-23.3,0-42.4-19.1-42.4-42.4v0c0-23.3,19.1-42.4,42.4-42.4h141.2
	c23.3,0,42.4,19.1,42.4,42.4v0C409.3,175.2,390.2,194.3,366.9,194.3z"/>
<circle class="st8" cx="270.3" cy="230" r="14.3"/>
<circle class="st8" cx="273.7" cy="270.4" r="9.8"/>
<g>
	<path d="M303.3,141.4h3.7v0.1l-8.3,9.5l8.8,12.5v0.1h-3.5l-7.2-10.4l-3.4,3.9v6.4h-2.9v-22.2h2.9v11.5h0.1L303.3,141.4z"/>
	<path d="M313.4,161.7c0,0.6-0.2,1.1-0.6,1.5c-0.4,0.4-0.9,0.6-1.5,0.6c-0.6,0-1.1-0.2-1.5-0.6c-0.4-0.4-0.6-0.9-0.6-1.5
		c0-0.6,0.2-1.1,0.6-1.5c0.4-0.4,0.9-0.6,1.5-0.6c0.6,0,1.1,0.2,1.5,0.6C313.1,160.6,313.4,161.1,313.4,161.7z"/>
</g>
</svg>
