<?xml version="1.0" encoding="utf-8"?>
<!-- Generator: Adobe Illustrator 22.1.0, SVG Export Plug-In . SVG Version: 6.00 Build 0)  -->
<svg version="1.1" id="Layer_1" xmlns="http://www.w3.org/2000/svg" xmlns:xlink="http://www.w3.org/1999/xlink" x="0px" y="0px"
	 viewBox="0 0 720 720" style="enable-background:new 0 0 720 720;" xml:space="preserve">
<style type="text/css">
	.st0{fill:#02BBE2;}
</style>
<g>
	<g>
		<path class="st0" d="M440.8,605.3c-1.3-0.5-1.9-1.6-2.4-2.7c-1.5-3.5-2-7.2-2.4-10.9c-1-8.9-0.6-17.9-0.7-26.8
			c0-6.4-0.1-12.8,0.1-19.2c0.1-6.2,0.5-12.3,2-18.3c0.3-1.4,0.8-2.8,1.5-4c0.7-1.2,1.5-1.9,3.1-1.8c6.2,0.1,12.3,0,18.5,0.1
			c1.1,0,1.5-0.2,1.5-1.4c0-47.7,0-95.4,0-143.1c0-1.1-0.3-1.4-1.4-1.4c-6.2,0-12.3,0-18.5,0c-1.5,0-2.5-0.6-3.2-1.9
			c-1.4-2.5-1.9-5.2-2.4-8c-0.9-5.5-1.2-11-1.2-16.5c0-10.4-0.1-20.9,0-31.3c0.1-6.8,0.4-13.7,2.1-20.3c0.4-1.5,0.8-2.9,1.6-4.2
			c0.7-1.2,1.7-1.8,3.1-1.8c4.1,0.1,8.2,0,12.4,0c20.3,0,40.6-0.1,60.9-0.1c7.9,0,15.8,0.1,23.6,0.1c1.5,0,2.5,0.6,3.2,1.9
			c1.4,2.6,1.9,5.4,2.4,8.2c0.3,1.7,0.8,3.3,1.2,4.9c0,94.6,0,189.1,0,283.7c-0.3,2.6-0.9,5.2-1.4,7.8c-0.3,1.8-0.9,3.5-1.7,5.1
			c-0.7,1.4-1.8,2.2-3.5,2.2c-6.7-0.1-13.3,0-20,0c-10.3,0-20.7,0-31,0c-15.4,0-30.7,0-46.1,0C441.8,605.4,441.3,605.5,440.8,605.3z
			"/>
		<path class="st0" d="M173.9,176.6c0.4-2,0.2-4.1,0.4-6.2c1.5-14.9,6.8-28,17.4-38.8c8.7-8.8,19.3-14.1,31.5-16.2
			c11.2-1.9,22.3-1.3,32.9,2.8c20.1,7.7,32.4,22.4,37.4,43.1c3.7,15.4,2.5,30.6-4.8,44.9c-9.1,18-23.9,28.8-43.9,32.1
			c-14.7,2.4-28.8,0.2-41.7-7.4c-14.6-8.5-23.4-21.4-27.4-37.7c-1.1-4.6-1.7-9.2-1.7-13.9c0-0.3,0.1-0.6-0.2-0.8
			C173.9,177.9,173.9,177.3,173.9,176.6z"/>
		<path class="st0" d="M545.9,181.7c-0.5,1.8-0.4,3.6-0.7,5.4c-4.1,24.2-17.3,41.1-40.8,49c-16,5.4-31.9,4.2-47.1-3.2
			c-15.1-7.3-25.1-19.4-29.9-35.4c-5.8-19.6-3.9-38.6,7-56.2c8.8-14.1,21.7-22.4,37.9-25.6c13.2-2.6,26.1-1.5,38.4,4.2
			c17.3,8,28,21.7,32.9,39.9c1.1,4.1,1.8,8.3,2,12.5c0,0.2,0,0.5,0.2,0.7C545.9,175.9,545.9,178.8,545.9,181.7z"/>
		<path class="st0" d="M173.9,545.5c0-64.4,0-128.8,0-193.2c0.2-0.1,0.3,0,0.4,0.1c0.4,0.8,0.2,1.7,0.2,2.5c0,49.8,0,99.5,0,149.3
			c0,13,0,26,0,39c0,0.7,0.1,1.4-0.2,2.1C174.2,545.5,174.1,545.6,173.9,545.5z"/>
		<path class="st0" d="M519.6,605.3c6.5,0,13.1,0,19.6,0c1.5,0,2.5-0.7,3.2-1.9c1.4-2.5,1.9-5.2,2.3-8c0.3-1.7,0.7-3.4,1.2-5.1
			c0,4.8,0,9.5,0,14.3c0,0.7-0.1,0.9-0.9,0.9c-8.5,0-17,0-25.6,0c-0.1-0.1-0.1-0.1-0.1-0.1C519.5,605.3,519.5,605.3,519.6,605.3z"/>
		<path class="st0" d="M179.7,605.5c-1.7,0-3.4,0-5,0c-0.6,0-0.7-0.1-0.7-0.7c0-5.3,0-10.6,0-15.8c0.1-0.1,0.2-0.1,0.3,0
			c0.4,2.3,1.1,4.6,1.4,7c0.2,1.8,0.7,3.6,1.3,5.3c0.5,1.5,1.3,2.9,2.7,3.8C179.8,605.3,179.8,605.4,179.7,605.5z"/>
		<path class="st0" d="M179.7,605.5c0-0.1,0-0.1,0-0.2c0.5-0.5,1.1-0.4,1.7-0.4c2.2,0,4.4,0,6.6,0c29.6,0,59.1,0,88.7,0
			c0.8,0,1.7-0.2,2.4,0.4c0,0.1,0,0.1,0,0.2C245.9,605.5,212.8,605.5,179.7,605.5z"/>
		<path class="st0" d="M440.8,605.3c15.8,0,31.7,0,47.5,0c0.1,0,0.1,0.1,0.1,0.1c0,0.1-0.1,0.1-0.1,0.1c-15.8,0-31.7,0-47.5,0
			C440.8,605.4,440.8,605.3,440.8,605.3z"/>
		<path class="st0" d="M174.2,352.3c-0.1,0-0.1,0-0.2,0c0-14.7,0-29.4,0-44.2c0.1,0,0.1-0.1,0.2,0c0.5,0.4,0.4,1,0.4,1.6
			c0,13.7,0,27.4,0,41.1C174.6,351.3,174.6,351.9,174.2,352.3z"/>
		<path class="st0" d="M174.1,589c-0.1,0-0.1,0-0.2,0c0-14.5,0-29,0-43.4c0.1,0,0.2,0,0.2,0c0.5,0.4,0.4,1,0.4,1.6
			c0,13.5,0,26.9,0,40.4C174.6,588,174.6,588.5,174.1,589z"/>
		<path class="st0" d="M488.3,605.5c0-0.1,0-0.1,0-0.2c9.7,0,19.3,0,29,0c0.8,0,1.5,0,2.3,0c0,0.1,0,0.1,0,0.2
			C509.1,605.5,498.7,605.5,488.3,605.5z"/>
		<path class="st0" d="M174.1,589c0-3.8,0-7.5,0-11.3c0-10.7,0-21.5,0-32.2c0-0.4,0-0.7,0-1.1c0-63.7,0-127.3,0-191
			c0-0.4,0-0.7,0-1.1c0-6.3,0-12.5,0-18.8c0-8,0-16,0-24c0-0.5,0-1-0.1-1.4c0.8-4.6,1.3-9.2,3-13.6c0.7-1.8,1.8-2.8,3.9-2.8
			c17,0,33.9,0,50.9,0c15,0,29.9,0,44.9,0c3.1,0,3.7,0.5,4.9,3.4c1.3,3.2,1.7,6.6,2.1,10c0.7,6,0.8,12,0.8,18
			c0,10.4,0,20.8-0.1,31.2c-0.1,5.5-0.6,11-2.1,16.4c-0.1,0.4-0.2,0.8-0.4,1.1c-1.3,3.5-1.9,3.9-5.6,3.9c-5.8,0-11.5,0-17.3,0
			c-0.9,0-1.2,0.1-1.2,1.2c0,47.9,0,95.7,0,143.6c0,0.9,0.3,1.1,1.2,1.1c6.2,0,12.5,0,18.7-0.1c1.7,0,2.6,0.7,3.3,2
			c1.3,2.4,1.8,5.1,2.2,7.8c1,6.1,1.3,12.2,1.3,18.3c0,11.5,0.1,23-0.1,34.4c-0.1,5.8-0.6,11.6-2.4,17.1c-0.5,1.7-1.1,3.5-3.1,4.2
			c-0.5,0-1,0-1.6,0c-24.9,0-49.8,0-74.7,0c-7.7,0-15.4,0-23.1,0c-1.2-0.3-1.8-1.2-2.3-2.2c-1.3-2.6-1.9-5.5-2.3-8.4
			C174.9,592.8,174,591,174.1,589z"/>
	</g>
	<rect x="237.2" y="520.9" class="st0" width="242.8" height="84.6"/>
</g>
</svg>
