<?xml version="1.0" encoding="utf-8"?>
<!-- Generator: Adobe Illustrator 22.1.0, SVG Export Plug-In . SVG Version: 6.00 Build 0)  -->
<svg version="1.1" id="Layer_1" xmlns="http://www.w3.org/2000/svg" xmlns:xlink="http://www.w3.org/1999/xlink" x="0px" y="0px"
	 viewBox="0 0 720 720" style="enable-background:new 0 0 720 720;" xml:space="preserve">
<style type="text/css">
	.st0{fill:#FFFFFF;}
</style>
<path class="st0" d="M360,403c-1.4,0-2.7-0.8-3.4-2l-48.4-83.8c-1.1-1.9-0.4-4.3,1.5-5.4c1.9-1.1,4.3-0.4,5.4,1.5l44.9,77.8
	l44.9-77.8c1.1-1.9,3.5-2.6,5.4-1.5c1.9,1.1,2.6,3.5,1.5,5.4L363.4,401C362.7,402.2,361.4,403,360,403z"/>
<path class="st0" d="M360.2,373.3c-1.4,0-2.7-0.8-3.4-2l-31.5-54.6c-1.1-1.9-0.4-4.3,1.5-5.4c1.9-1.1,4.3-0.4,5.4,1.5l28,48.6
	l27.7-48c1.1-1.9,3.5-2.6,5.4-1.5c1.9,1.1,2.6,3.5,1.5,5.4l-31.1,54C362.9,372.5,361.6,373.3,360.2,373.3z"/>
<g>
	<path class="st0" d="M203.5,262.6c0,4.6-1.7,8.2-5,11c-3.4,2.7-7.5,4.1-12.4,4.1c-4.3,0-8.2-1.3-11.5-3.8c-3.3-2.5-5.6-6-6.9-10.4
		l6.4-2.6c0.4,1.6,1,3,1.8,4.2c0.8,1.3,1.7,2.3,2.7,3.2c1,0.9,2.2,1.6,3.5,2.1c1.3,0.5,2.6,0.8,4,0.8c3.1,0,5.6-0.8,7.5-2.4
		c1.9-1.6,2.9-3.7,2.9-6.3c0-2.2-0.8-4.1-2.4-5.6c-1.5-1.5-4.3-3-8.5-4.4c-4.2-1.5-6.8-2.5-7.8-3.1c-5.5-2.8-8.3-7-8.3-12.5
		c0-3.8,1.5-7.1,4.6-9.9c3.1-2.7,6.9-4.1,11.5-4.1c4,0,7.4,1,10.4,3.1c2.9,2,4.9,4.5,5.8,7.5l-6.3,2.6c-0.6-1.9-1.7-3.6-3.5-4.9
		c-1.7-1.3-3.8-1.9-6.3-1.9c-2.6,0-4.8,0.7-6.6,2.2c-1.8,1.4-2.7,3.1-2.7,5.3c0,1.8,0.7,3.4,2.1,4.7c1.6,1.3,4.9,2.9,10.1,4.7
		c5.3,1.8,9.1,4,11.4,6.6C202.4,255.6,203.5,258.8,203.5,262.6z"/>
	<path class="st0" d="M226.8,277.7c-5.3,0-9.7-1.8-13.2-5.4c-3.5-3.7-5.2-8.2-5.2-13.7c0-5.5,1.7-10,5.2-13.7
		c3.5-3.6,7.9-5.4,13.2-5.4c3.6,0,6.8,0.9,9.6,2.7c2.7,1.8,4.8,4.3,6.1,7.6l-6.1,2.6c-1.9-4.5-5.2-6.7-10-6.7c-3.1,0-5.7,1.2-8,3.7
		c-2.2,2.5-3.3,5.5-3.3,9.2c0,3.6,1.1,6.7,3.3,9.2c2.2,2.5,4.9,3.7,8,3.7c4.9,0,8.4-2.2,10.4-6.7l6,2.6c-1.3,3.2-3.4,5.7-6.2,7.6
		C233.7,276.8,230.5,277.7,226.8,277.7z"/>
	<path class="st0" d="M254.9,276.5h-6.7v-35.8h6.4v5.8h0.3c0.7-1.9,2.1-3.5,4.2-4.9c2.1-1.3,4.2-2,6.2-2c1.9,0,3.6,0.3,5,0.9l-2,6.5
		c-0.8-0.3-2.1-0.5-3.9-0.5c-2.5,0-4.7,1-6.6,3.1c-1.9,2-2.8,4.4-2.8,7.2V276.5z"/>
	<path class="st0" d="M270.4,258.7c0-5.5,1.7-10,5.2-13.7c3.5-3.6,7.9-5.4,13.2-5.4c5.3,0,9.7,1.8,13.1,5.4
		c3.5,3.6,5.3,8.2,5.3,13.7c0,5.5-1.8,10.1-5.3,13.7c-3.5,3.6-7.8,5.4-13.1,5.4c-5.3,0-9.7-1.8-13.2-5.4
		C272.2,268.7,270.4,264.2,270.4,258.7z M277.1,258.7c0,3.8,1.1,7,3.4,9.3c2.2,2.4,5,3.6,8.3,3.6c3.3,0,6.1-1.2,8.3-3.6
		c2.2-2.4,3.4-5.5,3.4-9.3c0-3.8-1.1-6.9-3.4-9.3c-2.3-2.4-5.1-3.7-8.3-3.7c-3.3,0-6,1.2-8.3,3.7
		C278.3,251.8,277.1,254.9,277.1,258.7z"/>
	<path class="st0" d="M319.7,224.3v52.3H313v-52.3H319.7z"/>
	<path class="st0" d="M334.6,224.3v52.3h-6.7v-52.3H334.6z"/>
	<path class="st0" d="M360,276.5v-52.3h16c8,0,14.4,2.4,19.2,7.2s7.3,11.1,7.3,18.9c0,7.8-2.4,14.2-7.3,18.9
		c-4.8,4.8-11.3,7.2-19.2,7.2H360z M366.7,230.7v39.4h9.3c6.1,0,10.9-1.7,14.4-5.2c3.5-3.5,5.3-8.3,5.3-14.5c0-6.1-1.8-11-5.3-14.5
		s-8.3-5.3-14.4-5.3H366.7z"/>
	<path class="st0" d="M406.1,258.7c0-5.5,1.7-10,5.2-13.7c3.5-3.6,7.9-5.4,13.2-5.4c5.3,0,9.7,1.8,13.1,5.4
		c3.5,3.6,5.3,8.2,5.3,13.7c0,5.5-1.8,10.1-5.3,13.7c-3.5,3.6-7.8,5.4-13.1,5.4c-5.3,0-9.7-1.8-13.2-5.4
		C407.9,268.7,406.1,264.2,406.1,258.7z M412.9,258.7c0,3.8,1.1,7,3.4,9.3c2.2,2.4,5,3.6,8.3,3.6c3.3,0,6.1-1.2,8.3-3.6
		c2.2-2.4,3.4-5.5,3.4-9.3c0-3.8-1.1-6.9-3.4-9.3c-2.3-2.4-5.1-3.7-8.3-3.7c-3.3,0-6,1.2-8.3,3.7C414,251.8,412.9,254.9,412.9,258.7
		z"/>
	<path class="st0" d="M499,240.8l-11.5,35.8h-6.9l-8.9-27.4l-8.8,27.4h-6.8l-11.5-35.8h7l8,27h0.1l8.8-27h6.9l8.8,27h0.1l7.9-27H499
		z"/>
	<path class="st0" d="M503.4,240.8h6.4v5h0.3c1-1.8,2.6-3.2,4.7-4.4s4.3-1.8,6.6-1.8c4.4,0,7.7,1.3,10.1,3.8
		c2.4,2.5,3.5,6.1,3.5,10.7v22.5h-6.7v-22c-0.1-5.8-3.1-8.8-8.8-8.8c-2.7,0-4.9,1.1-6.7,3.2c-1.8,2.2-2.7,4.8-2.7,7.8v19.8h-6.7
		V240.8z"/>
	<path class="st0" d="M552.3,272c0,1.4-0.5,2.5-1.4,3.5c-0.9,1-2.1,1.5-3.5,1.5c-1.4,0-2.5-0.5-3.5-1.5c-1-1-1.5-2.1-1.5-3.5
		c0-1.4,0.5-2.6,1.5-3.5c1-0.9,2.1-1.4,3.5-1.4c1.4,0,2.6,0.5,3.5,1.4C551.8,269.4,552.3,270.6,552.3,272z M549.9,260.3h-5.3
		l-0.7-19.6v-16.5h6.7v16.5L549.9,260.3z"/>
</g>
</svg>
